<svg viewBox="-1 0 1440 158" fill="none" xmlns="http://www.w3.org/2000/svg">
    <path fill-rule="evenodd" clip-rule="evenodd"
          d="M-1.499878 30.2856L35.2999 21.7883C68.8999 13.291 137.3 -3.70372 205.7 9.04229C275.3 21.7883 343.7 64.275 412.1 60.0263C480.5 55.7777 548.9 4.79362 617.3 0.544946C685.7 -3.70373 755.3 38.783 823.7 68.5237C892.1 98.2644 960.5 115.259 1028.9 106.762C1097.3 98.2644 1165.7 64.275 1235.3 47.2803C1303.7 30.2856 1372.1 30.2856 1405.7 30.2856H1440.5V157.746H1405.7C1372.1 157.746 1303.7 157.746 1235.3 157.746C1165.7 157.746 1097.3 157.746 1028.9 157.746C960.5 157.746 892.1 157.746 823.7 157.746C755.3 157.746 685.7 157.746 617.3 157.746C548.9 157.746 480.5 157.746 412.1 157.746C343.7 157.746 275.3 157.746 205.7 157.746C137.3 157.746 68.8999 157.746 35.2999 157.746H0.499878V30.2856Z"
          fill="#146bea" fill-opacity="0.3" />
</svg>