<svg viewBox="-1 0 1440 146" fill="none" xmlns="http://www.w3.org/2000/svg">
    <path fill-rule="evenodd" clip-rule="evenodd"
          d="M-1 58.5C0 58.5 59 38.5 85 24.5C114.094 8.83379 136 2.99999 170 0.999988C204 -1.00001 250 11.5 307.5 44C378.967 84.3942 398.961 76.6926 480 73.6957C620.5 68.5 640.5 90 720 101C799.5 112 937.414 69.29 1016 73.6957C1096.4 83.6457 1124.5 105.696 1210 105.696C1295.5 105.696 1350.5 54.2458 1400.4 26.2458L1421 18.2458L1440 13.6957V145.196H1400.4C1359.6 145.196 1280.4 145.196 1200 145.196C1119.6 145.196 1040.4 145.196 960 145.196C879.6 145.196 800.4 145.196 720 145.196C639.6 145.196 560.4 145.196 480 145.196C399.6 145.196 320.4 145.196 240 145.196C159.6 145.196 80.4 145.196 39.6 145.196H0V58.5Z"
          fill="#146bea" />
</svg>