<svg width="658" height="648" viewBox="0 0 658 648" fill="none" xmlns="http://www.w3.org/2000/svg">
    <path fill-rule="evenodd" clip-rule="evenodd" d="M317.803 16.8826C368.716 23.7709 418.761 30.6618 465.014 54.5888C513.794 79.8222 559.31 112.242 591.968 158.708C627.067 208.648 658.562 266.536 657.992 329.163C657.424 391.636 620.306 445.18 588.883 497.699C558.68 548.179 528.439 602.144 478.577 629.032C429.648 655.417 372.401 647.821 317.803 643.88C266.12 640.15 216.897 627.95 169.009 606.687C115.552 582.952 53.7762 565.13 22.4921 512.763C-8.98858 460.068 1.09931 391.779 3.21289 329.163C5.26359 268.409 9.80895 207.711 34.632 153.109C60.4631 96.2899 93.9252 37.4442 147.564 11.6398C200.295 -13.7277 260.5 9.12991 317.803 16.8826Z" fill="#275c9e"/>
</svg>